<?xml version="1.0" standalone="no"?><!DOCTYPE svg PUBLIC "-//W3C//DTD SVG 1.1//EN" "http://www.w3.org/Graphics/SVG/1.1/DTD/svg11.dtd"><svg t="1584108452954" class="icon" viewBox="0 0 1024 1024" version="1.1" xmlns="http://www.w3.org/2000/svg" p-id="600" xmlns:xlink="http://www.w3.org/1999/xlink" width="200" height="200"><defs><style type="text/css"></style></defs><path d="M85.5 488.2l851 0c12.8 0 23.3 10.4 23.3 23.29999999 0 12.8-10.4 23.3-23.30000001 23.30000001l-851 0c-12.8 0-23.3-10.4-23.29999999-23.3 0.1-12.8 10.5-23.3 23.3-23.3z" fill="#2C2C2C" p-id="601"></path><path d="M246.4 305.3c6 0 11.9 2.3 16.50000001 6.8 9.1 9.1 9.1 23.8-1e-8 32.9l-145.3 145.3c-11.7 11.7-11.7 30.7 0 42.3L262.8 677.9c9.1 9.1 9.1 23.8 0 32.9-9.1 9.1-23.8 9.1-32.9 0l-145.3-145.3c-29.8-29.8-29.8-78.3 0-108.1L229.9 312.2c4.6-4.6 10.5-6.9 16.5-6.9z" fill="#2C2C2C" p-id="602"></path></svg>