<?xml version="1.0" standalone="no"?><!DOCTYPE svg PUBLIC "-//W3C//DTD SVG 1.1//EN" "http://www.w3.org/Graphics/SVG/1.1/DTD/svg11.dtd"><svg t="1584270680672" class="icon" viewBox="0 0 1353 1024" version="1.1" xmlns="http://www.w3.org/2000/svg" p-id="629" xmlns:xlink="http://www.w3.org/1999/xlink" width="264.2578125" height="200"><defs><style type="text/css"></style></defs><path d="M1052.06842815 134.79520329H316.07747834c-12.70330108 0-23.51230505 4.47281959-32.55321416 13.47289853-8.9382143 8.94563772-13.47908469 19.76701549-13.47908615 32.42453744V639.42942669c0 12.66989429 4.54087037 23.45167765 13.48032339 32.45175657 9.03967334 8.93945155 19.84867585 13.43949175 32.55321414 13.43949176h735.98971259c12.72433551 0 23.55808561-4.5000402 32.51857014-13.43949176 9.0334857-9.00007892 13.51372869-19.78062507 13.51373018-32.45175657V180.69263926c0-12.65752196-4.47900575-23.47889827-13.52115357-32.42453744-8.95182535-9.00007892-19.78681122-13.47413575-32.51114675-13.47413575m-736.0169332-91.72681824H1052.04120755c38.07773513 0 70.61733971 13.44691515 97.57674633 40.33208482 26.95940661 26.89877923 40.4125094 59.28867121 40.41250939 97.28598175V639.42942669c0 37.97008995-13.45310132 70.42184653-40.41250939 97.29340663-26.96064385 26.88640689-59.49901266 40.33208481-97.57674633 40.33208482H730.04400682v91.75403883h138.01647633c12.6971149 0 23.54571181 4.47281959 32.51857014 13.47289853 9.01987614 8.93945155 13.50011911 19.76701549 13.50011913 32.42453597 0 12.66989429-4.47900575 23.4912706-13.50630531 32.41711259-8.97285833 9.01368997-19.81526907 13.48650809-32.51238396 13.48650957h-368.0084666c-12.71814934 0-23.53333949-4.47281959-32.55321562-13.48650957-8.97285833-8.92584197-13.47908469-19.74721828-13.47908469-32.41711259 0-12.66370813 4.51364978-23.47889827 13.47908469-32.42453597 9.01987614-9.00007892 19.83506627-13.47413575 32.55321562-13.47413577h138.00162808v-91.75280159H316.05025774c-38.10495426 0-70.63713546-13.44691515-97.57674634-40.33208482-26.95940661-26.87155862-40.43849279-59.32331669-40.4384913-97.29340663V180.69263926c0-38.00473395 13.47908469-70.39462591 40.4384913-97.29340661 26.94703427-26.88640689 59.47179205-40.33208481 97.57674634-40.33208482" fill="#2c2c2c" p-id="630"></path><path d="M658.4529173 584.92413538a19.00979037 16.94474623 0 0 1-6.46238807-1.01581868 19.00979037 16.94474623 0 0 1-12.35685952-17.79229382l14.63719257-120.14128346h-111.9652432a19.00979037 16.94474623 0 0 1-15.77797774-26.43355739l149.98482396-199.95171936a19.00979037 16.94474623 0 0 1 22.24036726-6.43888065 19.00979037 16.94474623 0 0 1 12.35685805 16.94474623l-14.63719108 120.98759384h111.96524173a19.00979037 16.94474623 0 0 1 15.7779777 26.4347946l-149.98482395 199.95048214a19.00979037 16.94474623 0 0 1-15.77797771 7.45593655z" fill="#2c2c2c" p-id="631"></path></svg>