<?xml version="1.0" standalone="no"?><!DOCTYPE svg PUBLIC "-//W3C//DTD SVG 1.1//EN" "http://www.w3.org/Graphics/SVG/1.1/DTD/svg11.dtd"><svg t="1584277549943" class="icon" viewBox="0 0 1242 1024" version="1.1" xmlns="http://www.w3.org/2000/svg" p-id="671" xmlns:xlink="http://www.w3.org/1999/xlink" width="242.578125" height="200"><defs><style type="text/css"></style></defs><path d="M1018.22423084 925.4113202l38.84563139-38.8456314V94.11479717l-38.84563139-38.84563143h-796.33545538l-38.84563138 38.84563143v796.33545535l38.84563138 38.84563141h796.33545538v-3.88456373z m-757.48982397-788.56632792h718.64419111v718.64419111h-718.64419111v-718.64419111z" fill="#1296db" p-id="672"></path><path d="M238.0776929 851.5973362L976.42875817 112.39409547l32.43246018 32.393614L270.5089394 883.99216532z" fill="#1296db" p-id="673"></path><path d="M210.13797178 726.52168469l638.85526246-639.59332962 32.43246164 32.39482912-638.8564776 639.59332962z" fill="#1296db" p-id="674"></path><path d="M354.59516545 875.8345834l638.85526248-639.59333109 32.43246163 32.3948306-638.85647761 639.59332961z" fill="#1296db" p-id="675"></path><path d="M212.51969464 578.37779771L705.17699373 85.15238166l32.43246163 32.39482913L244.9521548 610.77384052z" fill="#1296db" p-id="676"></path><path d="M505.07586077 873.36181637L997.73315988 380.13639884l32.43246014 32.39482912L537.50832093 905.75785915z" fill="#1296db" p-id="677"></path><path d="M208.22361087 438.13049975l364.05640591-364.47763968 32.43246164 32.39482912-364.05762104 364.47763969z" fill="#1296db" p-id="678"></path><path d="M197.86153832 302.73647802L416.93026608 83.41282565l32.43246017 32.39482912-219.07115511 219.32365237z" fill="#1296db" p-id="679"></path><path d="M648.87753434 870.28451355l356.77770596-357.18922748 32.43246164 32.39482912-356.77770744 357.18922748z" fill="#1296db" p-id="680"></path><path d="M793.32744454 872.68687313l213.59998981-213.84763238 32.43246164 32.39482914-213.60120495 213.8476324z" fill="#1296db" p-id="681"></path></svg>