<?xml version="1.0" standalone="no"?><!DOCTYPE svg PUBLIC "-//W3C//DTD SVG 1.1//EN" "http://www.w3.org/Graphics/SVG/1.1/DTD/svg11.dtd"><svg t="1583389064811" class="icon" viewBox="0 0 1024 1024" version="1.1" xmlns="http://www.w3.org/2000/svg" p-id="1931" xmlns:xlink="http://www.w3.org/1999/xlink" width="64" height="64"><defs><style type="text/css"></style></defs><path d="M912 275.6v472.7c0 45.1-16 83.6-48 115.7s-70.5 48-115.7 48H275.7c-45.1 0-83.6-16-115.7-48s-48-70.4-48-115.6V275.6c0-45.1 16-83.6 48-115.7s70.5-48 115.7-48h472.7c45.1 0 83.6 16 115.7 48C896 192 912 230.6 912 275.6z m-163.6-90.9H275.7c-25 0-46.3 9-64.2 26.6-17.8 17.8-26.6 39.2-26.6 64.2v472.7c0 25 8.9 46.3 26.6 64.2s39.2 26.6 64.2 26.6h472.7c25 0 46.3-8.9 64.2-26.6 17.8-17.8 26.6-39.2 26.6-64.2V275.6c0-25-9-46.3-26.6-64.2-17.9-17.7-39.2-26.7-64.2-26.7z" p-id="1932" fill="#1afa29"></path></svg>